# xmcd
#
# Track frame offsets:
#	150
#	18521
#	34956
#	48089
#	64840
#	80252
#	97838
#	115121
#	132669
#	151948
#	170319
#	186754
#	199887
#	216638
#	232050
#	249636
#	266919
#	284467
#
# Disc length: 4049
#
# Revision: 1
# Processed by: cddbd v1.5.2PL0 Copyright (c) Steve Scherf et al.
# Submitted via: kJams Pro (development) 1.0patch45.9
#
DISCID=090fcf12
DTITLE=Various Artist - NSC 3016
DYEAR=1995
DGENRE=Country
TTITLE0=Lonestar - I'm Already There
TTITLE1=Jo Dee Messina - Downtime
TTITLE2=Keith Urban - Where The Blackstop Ends
TTITLE3=Trisha Yearwood - I Would Have Loved You Anyway
TTITLE4=Lee Ann Womack - Why They Call It Falling
TTITLE5=Darryl Worley - Second Wind
TTITLE6=Blake Shelton - Austin
TTITLE7=Chris Cagle - Laredo
TTITLE8=Soggy Bottom Boys - I Am A Man Of Constant Sorrow
TTITLE9=Lonestar - Vocals - I'm Already There
TTITLE10=Jo Dee Messina - Vocals - Downtime
TTITLE11=Keith Urban - Vocals - Where The Blackstop Ends
TTITLE12=Trisha Yearwood - Vocals - I Would Have Loved You Anyway
TTITLE13=Lee Ann Womack - Vocals - Why They Call It Falling
TTITLE14=Darryl Worley - Vocals - Second Wind
TTITLE15=Blake Shelton - Vocals - Austin
TTITLE16=Chris Cagle - Vocals - Laredo
TTITLE17=Soggy Bottom Boys - Vocals - I Am A Man Of Constant Sorrow
EXTD=
EXTT0=
EXTT1=
EXTT2=
EXTT3=
EXTT4=
EXTT5=
EXTT6=
EXTT7=
EXTT8=
EXTT9=
EXTT10=
EXTT11=
EXTT12=
EXTT13=
EXTT14=
EXTT15=
EXTT16=
EXTT17=
PLAYORDER=
